<svg width="24" height="24" viewBox="0 0 24 24" fill="none" xmlns="http://www.w3.org/2000/svg">
<path d="M15.51 2.82996H8.49C6 2.82996 5.45 4.06996 5.13 5.58996L4 11H20L18.87 5.58996C18.55 4.06996 18 2.82996 15.51 2.82996Z" stroke="#797D83" stroke-width="1.5" stroke-linecap="round" stroke-linejoin="round"/>
<path d="M21.9897 19.82C22.0997 20.99 21.1597 22 19.9597 22H18.0797C16.9997 22 16.8497 21.54 16.6597 20.97L16.4597 20.37C16.1797 19.55 15.9997 19 14.5597 19H9.43974C7.99974 19 7.78974 19.62 7.53974 20.37L7.33974 20.97C7.14974 21.54 6.99974 22 5.91974 22H4.03974C2.83974 22 1.89974 20.99 2.00974 19.82L2.56974 13.73C2.70974 12.23 2.99974 11 5.61974 11H18.3797C20.9997 11 21.2897 12.23 21.4297 13.73L21.9897 19.82Z" stroke="#797D83" stroke-width="1.5" stroke-linecap="round" stroke-linejoin="round"/>
<path d="M4 8H3" stroke="#797D83" stroke-width="1.5" stroke-linecap="round" stroke-linejoin="round"/>
<path d="M21 8H20" stroke="#797D83" stroke-width="1.5" stroke-linecap="round" stroke-linejoin="round"/>
<path d="M12 3V5" stroke="#797D83" stroke-width="1.5" stroke-linecap="round" stroke-linejoin="round"/>
<path d="M10.5 5H13.5" stroke="#797D83" stroke-width="1.5" stroke-linecap="round" stroke-linejoin="round"/>
<path d="M6 15H9" stroke="#797D83" stroke-width="1.5" stroke-linecap="round" stroke-linejoin="round"/>
<path d="M15 15H18" stroke="#797D83" stroke-width="1.5" stroke-linecap="round" stroke-linejoin="round"/>
</svg>
