<svg width="24" height="24" viewBox="0 0 24 24" fill="none" xmlns="http://www.w3.org/2000/svg">
<path d="M21.75 8.00008C21.75 8.41008 21.41 8.75008 21 8.75008H3C2.59 8.75008 2.25 8.41008 2.25 8.00008C2.25 7.59008 2.59 7.25008 3 7.25008H4.02L4.4 5.44008C4.76 3.69008 5.51 2.08008 8.49 2.08008H15.51C18.49 2.08008 19.24 3.69008 19.6 5.44008L19.98 7.25008H21C21.41 7.25008 21.75 7.59008 21.75 8.00008Z" fill="#171C26"/>
<path d="M22.1796 13.66C22.0296 12.01 21.5896 10.25 18.3796 10.25H5.6196C2.4096 10.25 1.9796 12.01 1.8196 13.66L1.2596 19.75C1.1896 20.51 1.4396 21.27 1.9596 21.84C2.4896 22.42 3.2396 22.75 4.0396 22.75H5.9196C7.5396 22.75 7.8496 21.82 8.0496 21.21L8.2496 20.61C8.4796 19.92 8.5396 19.75 9.4396 19.75H14.5596C15.4596 19.75 15.4896 19.85 15.7496 20.61L15.9496 21.21C16.1496 21.82 16.4596 22.75 18.0796 22.75H19.9596C20.7496 22.75 21.5096 22.42 22.0396 21.84C22.5596 21.27 22.8096 20.51 22.7396 19.75L22.1796 13.66ZM8.9996 15.75H5.9996C5.5896 15.75 5.2496 15.41 5.2496 15C5.2496 14.59 5.5896 14.25 5.9996 14.25H8.9996C9.4096 14.25 9.7496 14.59 9.7496 15C9.7496 15.41 9.4096 15.75 8.9996 15.75ZM17.9996 15.75H14.9996C14.5896 15.75 14.2496 15.41 14.2496 15C14.2496 14.59 14.5896 14.25 14.9996 14.25H17.9996C18.4096 14.25 18.7496 14.59 18.7496 15C18.7496 15.41 18.4096 15.75 17.9996 15.75Z" fill="#171C26"/>
</svg>
